<?xml version="1.0" encoding="UTF-8" standalone="no"?>
<svg
   width="3000"
   height="600"
   viewBox="0 0 793.75 158.75"
   version="1.1"
   id="svg26"
   sodipodi:docname="nano-ext.svg"
   inkscape:version="1.2.2 (b0a8486541, 2022-12-01)"
   xmlns:inkscape="http://www.inkscape.org/namespaces/inkscape"
   xmlns:sodipodi="http://sodipodi.sourceforge.net/DTD/sodipodi-0.dtd"
   xmlns="http://www.w3.org/2000/svg"
   xmlns:svg="http://www.w3.org/2000/svg">
  <defs
     id="defs30" />
  <sodipodi:namedview
     id="namedview28"
     pagecolor="#ffffff"
     bordercolor="#000000"
     borderopacity="0.25"
     inkscape:showpageshadow="2"
     inkscape:pageopacity="0.0"
     inkscape:pagecheckerboard="0"
     inkscape:deskcolor="#d1d1d1"
     showgrid="false"
     inkscape:zoom="0.3351502"
     inkscape:cx="1450.0961"
     inkscape:cy="307.32489"
     inkscape:window-width="1680"
     inkscape:window-height="994"
     inkscape:window-x="0"
     inkscape:window-y="0"
     inkscape:window-maximized="1"
     inkscape:current-layer="text290" />
  <g
     transform="translate(613.83369,-137.72083)"
     id="g24">
    <circle
       cx="133.132"
       cy="241.722"
       r="10.831"
       fill="#299f42"
       id="circle2" />
    <circle
       cx="55.395"
       cy="163.83701"
       r="10.831"
       fill="#299f42"
       id="circle4" />
    <circle
       cx="55.308998"
       cy="241.722"
       r="10.831"
       fill="#299f42"
       id="circle6" />
    <path
       fill="none"
       stroke="#539f29"
       stroke-linejoin="round"
       stroke-width="10.583"
       d="m 29.368,189.84 25.94,-25.942 v 77.824 l -25.94,25.94 z"
       id="path8" />
    <path
       fill="none"
       stroke="#66bf31"
       stroke-linejoin="round"
       stroke-width="10.583"
       d="m 55.309,163.898 77.823,77.824 -25.94,25.94 -77.824,-77.823 z"
       id="path10" />
    <circle
       cx="29.368"
       cy="189.84"
       r="10.831"
       fill="#299f42"
       id="circle12" />
    <circle
       cx="133.132"
       cy="163.89799"
       r="10.831"
       fill="#299f42"
       id="circle14" />
    <circle
       cx="29.368"
       cy="267.66299"
       r="10.831"
       fill="#299f42"
       id="circle16" />
    <path
       fill="none"
       stroke="#78d048"
       stroke-linejoin="round"
       stroke-width="10.583"
       d="m 133.132,163.898 v 77.824 l -25.94,25.94 V 189.84 Z"
       id="path18" />
    <circle
       cx="107.191"
       cy="189.84"
       r="10.831"
       fill="#299f42"
       id="circle20" />
    <circle
       cx="107.191"
       cy="267.66299"
       r="10.831"
       fill="#299f42"
       id="circle22" />
  </g>
  <g
     aria-label="NANO GRID"
     id="text290"
     style="font-weight:bold;font-size:95.9435px;font-family:Quicksand;-inkscape-font-specification:'Quicksand Bold';text-align:center;text-anchor:middle;fill:#97da6f;stroke:#000000;stroke-width:5.99647;stroke-linecap:round;stroke-linejoin:round">
    <path
       id="path6948"
       style="font-family:Montserrat;-inkscape-font-specification:'Montserrat Bold';stroke:none"
       d="M 32.257463 51.672815 L 32.257463 118.83306 L 47.608464 118.83306 L 47.608464 78.069653 L 81.092725 118.83306 L 93.853186 118.83306 L 93.853186 51.672815 L 78.502185 51.672815 L 78.502185 92.418132 L 45.114042 51.672815 L 32.257463 51.672815 z " />
    <path
       id="path6950"
       style="font-family:Montserrat;-inkscape-font-specification:'Montserrat Bold';stroke:none"
       d="M 130.88762 51.672815 L 100.95301 118.83306 L 116.87969 118.83306 L 122.86434 104.44169 L 153.99732 104.44169 L 159.95871 118.83306 L 176.26883 118.83306 L 146.23862 51.672815 L 130.88762 51.672815 z M 138.4608 66.937 L 149.10873 92.640857 L 127.77205 92.640857 L 138.4608 66.937 z " />
    <path
       id="path6952"
       style="font-family:Montserrat;-inkscape-font-specification:'Montserrat Bold';stroke:none"
       d="M 183.27305 51.672815 L 183.27305 118.83306 L 198.62405 118.83306 L 198.62405 78.07017 L 232.10831 118.83306 L 244.86877 118.83306 L 244.86877 51.672815 L 229.51777 51.672815 L 229.51777 92.418132 L 196.12911 51.672815 L 183.27305 51.672815 z " />
    <path
       id="path6954"
       style="font-family:Montserrat;-inkscape-font-specification:'Montserrat Bold';stroke:none"
       d="M 293.32008 50.521464 C 288.07518 50.521464 283.21384 51.385022 278.73647 53.112004 C 274.25912 54.838985 270.3578 57.269397 267.03176 60.403548 C 263.70572 63.537699 261.11505 67.215473 259.26014 71.436983 C 257.4692 75.658493 256.57349 80.264138 256.57349 85.253194 C 256.57349 90.242251 257.4692 94.847379 259.26014 99.068888 C 261.11505 103.2904 263.67357 106.96817 266.93564 110.10232 C 270.26168 113.23647 274.16351 115.6674 278.64087 117.39438 C 283.1822 119.12136 288.10733 119.98441 293.4162 119.98441 C 298.6611 119.98441 303.49028 119.12136 307.90369 117.39438 C 312.38104 115.6674 316.25072 113.26863 319.5128 110.19844 C 322.83883 107.06428 325.42899 103.38651 327.2839 99.165007 C 329.1388 94.879535 330.06667 90.242251 330.06667 85.253194 C 330.06667 80.200175 329.1388 75.59453 327.2839 71.436983 C 325.42899 67.215473 322.83883 63.537699 319.5128 60.403548 C 316.25072 57.269397 312.38104 54.838985 307.90369 53.112004 C 303.49028 51.385022 298.62895 50.521464 293.32008 50.521464 z M 293.32008 63.761483 C 296.32631 63.761483 299.10888 64.273393 301.66737 65.29679 C 304.22587 66.320186 306.43222 67.791606 308.28713 69.710474 C 310.20599 71.629342 311.67741 73.900008 312.70081 76.522461 C 313.78817 79.144914 314.33172 82.055081 314.33172 85.253194 C 314.33172 88.451308 313.78817 91.361475 312.70081 93.983927 C 311.67741 96.606381 310.20599 98.877049 308.28713 100.79591 C 306.36825 102.71479 304.12975 104.18569 301.57126 105.20908 C 299.07673 106.23248 296.32631 106.74439 293.32008 106.74439 C 290.31386 106.74439 287.53128 106.23248 284.97279 105.20908 C 282.4143 104.18569 280.17579 102.71479 278.25692 100.79591 C 276.40201 98.877049 274.93111 96.606381 273.84375 93.983927 C 272.82036 91.297513 272.30844 88.387346 272.30844 85.253194 C 272.30844 82.055081 272.82036 79.144914 273.84375 76.522461 C 274.93111 73.900008 276.43416 71.629342 278.35304 69.710474 C 280.2719 67.791606 282.47826 66.320186 284.97279 65.29679 C 287.53128 64.273393 290.31386 63.761483 293.32008 63.761483 z " />
    <path
       id="path6956"
       style="font-family:Montserrat;-inkscape-font-specification:'Montserrat Bold';stroke:none"
       d="m 393.17388,50.521464 c -5.37283,0 -10.29797,0.863558 -14.77532,2.59054 -4.47736,1.663019 -8.37919,4.061792 -11.70523,7.195943 -3.32604,3.134151 -5.91672,6.811925 -7.77162,11.033435 -1.79095,4.22151 -2.68614,8.858793 -2.68614,13.911812 0,5.053019 0.89519,9.690303 2.68614,13.911813 1.8549,4.221503 4.41342,7.899273 7.6755,11.033433 3.32603,3.13415 7.19571,5.56457 11.60911,7.29155 4.47736,1.66301 9.37085,2.49442 14.67972,2.49442 4.79717,0 9.5942,-0.73545 14.39137,-2.20659 4.86114,-1.47113 9.11461,-3.58205 12.76046,-6.33243 V 84.197445 h -14.19965 v 19.726445 c -1.04285,0.54855 -2.09807,1.00978 -3.16621,1.38131 -2.8783,0.95943 -5.85226,1.43919 -8.92245,1.43919 -3.19812,0 -6.14044,-0.51191 -8.82686,-1.53531 -2.62245,-1.02339 -4.92528,-2.49429 -6.9081,-4.41317 -1.91887,-1.982824 -3.42193,-4.285648 -4.50929,-6.908101 -1.02339,-2.622452 -1.5353,-5.500463 -1.5353,-8.634615 0,-3.198113 0.51191,-6.10828 1.5353,-8.730733 1.08736,-2.622453 2.59042,-4.893119 4.50929,-6.811987 1.98282,-1.918868 4.31729,-3.390288 7.00371,-4.413684 2.68641,-1.023397 5.66089,-1.535307 8.92297,-1.535307 3.38999,0 6.52422,0.640017 9.40252,1.919262 2.87831,1.215283 5.53278,3.102146 7.96334,5.660637 l 9.9782,-9.210807 c -3.26207,-3.773775 -7.29201,-6.651786 -12.08918,-8.634616 -4.73321,-1.98283 -10.07379,-2.974495 -16.02228,-2.974495 z" />
    <path
       id="path6958"
       style="font-family:Montserrat;-inkscape-font-specification:'Montserrat Bold';stroke:none"
       d="m 434.42924,51.672815 v 67.160245 h 15.54272 v -18.70894 h 13.52838 c 0.24524,0 0.48667,-0.004 0.72915,-0.007 l 12.89482,18.71617 H 493.9145 L 478.91025,97.302071 c 0.0439,-0.01909 0.0891,-0.03652 0.13281,-0.05581 4.34943,-1.918869 7.70771,-4.66929 10.07432,-8.251176 2.3666,-3.64585 3.54965,-7.963642 3.54965,-12.952698 0,-7.611511 -2.59067,-13.559951 -7.77162,-17.845422 -5.18094,-4.349435 -12.44054,-6.52415 -21.77903,-6.52415 z m 15.54272,12.664343 h 12.66486 c 4.79717,0 8.379,1.023821 10.7456,3.070614 2.36661,2.046792 3.54966,4.924803 3.54966,8.634615 0,3.645849 -1.18305,6.524377 -3.54966,8.635132 -2.3666,2.046792 -5.94843,3.070097 -10.7456,3.070097 h -12.66486 z" />
    <path
       d="M 504.94788,118.83329 V 51.672842 h 15.54285 v 67.160448 z"
       style="font-family:Montserrat;-inkscape-font-specification:'Montserrat Bold';stroke:none"
       id="path6960" />
    <path
       id="path6962"
       style="font-family:Montserrat;-inkscape-font-specification:'Montserrat Bold';stroke:none"
       d="m 536.41733,51.672815 v 67.160245 h 30.50977 c 7.29169,0 13.71989,-1.37496 19.28461,-4.12533 5.56471,-2.81434 9.91415,-6.71617 13.0483,-11.70523 3.13416,-5.053019 4.70152,-10.969305 4.70152,-17.749306 0,-6.843962 -1.56736,-12.760764 -4.70152,-17.749821 -3.13415,-4.989056 -7.48359,-8.858732 -13.0483,-11.60911 -5.56472,-2.81434 -11.99292,-4.221448 -19.28461,-4.221448 z m 15.54272,12.760461 h 14.19965 c 4.47736,0 8.34704,0.863558 11.60911,2.59054 3.32604,1.663019 5.88456,4.061792 7.67551,7.195943 1.8549,3.070189 2.78225,6.747963 2.78225,11.033435 0,4.22151 -0.92735,7.899284 -2.78225,11.033435 -1.79095,3.134152 -4.34947,5.564571 -7.67551,7.291541 -3.26207,1.66303 -7.13175,2.49443 -11.60911,2.49443 h -14.19965 z" />
  </g>
</svg>
